{
  "accessors": [
    {
      "bufferView": 2,
      "componentType": 5126,
      "count": 28835,
      "max": [
        10.775802612304688,
        0.053139001131057739,
        7.6168909072875977
      ],
      "min": [
        -9.5409450531005859,
        -27.591096878051758,
        -8.1325178146362305
      ],
      "type": "VEC3"
    },
    {
      "bufferView": 2,
      "byteOffset": 346020,
      "componentType": 5126,
      "count": 28835,
      "max": [
        0.9999852180480957,
        0.99977397918701172,
        0.99998182058334351
      ],
      "min": [
        -0.9999697208404541,
        -0.99998939037322998,
        -0.99889147281646729
      ],
      "type": "VEC3"
    },
    {
      "bufferView": 3,
      "componentType": 5126,
      "count": 28835,
      "max": [
        0.99982333183288574,
        0.99999541044235229,
        0.99998635053634644,
        1
      ],
      "min": [
        -0.9997718334197998,
        -0.71850425004959106,
        -0.99981027841567993,
        -1
      ],
      "type": "VEC4"
    },
    {
      "bufferView": 3,
      "byteOffset": 461360,
      "componentType": 5126,
      "count": 28835,
      "max": [
        0.75294101238250732,
        0.75294101238250732,
        0.75294101238250732,
        1
      ],
      "min": [
        0.75294101238250732,
        0.75294101238250732,
        0.75294101238250732,
        1
      ],
      "type": "VEC4"
    },
    {
      "bufferView": 1,
      "componentType": 5126,
      "count": 28835,
      "max": [
        0.90109598636627197,
        0.99793398380279541
      ],
      "min": [
        0.0019640000537037849,
        0.10704900324344635
      ],
      "type": "VEC2"
    },
    {
      "bufferView": 0,
      "componentType": 5125,
      "count": 166914,
      "max": [
        28834
      ],
      "min": [
        0
      ],
      "type": "SCALAR"
    },
    {
      "bufferView": 2,
      "byteOffset": 692040,
      "componentType": 5126,
      "count": 11499,
      "max": [
        10.793164253234863,
        -2.7483589649200439,
        4.6220211982727051
      ],
      "min": [
        -9.4516496658325195,
        -27.889873504638672,
        -7.923738956451416
      ],
      "type": "VEC3"
    },
    {
      "bufferView": 2,
      "byteOffset": 830028,
      "componentType": 5126,
      "count": 11499,
      "max": [
        0.99996185302734375,
        0.99299150705337524,
        0.99995195865631104
      ],
      "min": [
        -0.9999622106552124,
        -0.99981367588043213,
        -0.99627244472503662
      ],
      "type": "VEC3"
    },
    {
      "bufferView": 3,
      "byteOffset": 922720,
      "componentType": 5126,
      "count": 11499,
      "max": [
        0.98461240530014038,
        0.99999725818634033,
        0.9971160888671875,
        1
      ],
      "min": [
        -0.99962109327316284,
        -0.46325042843818665,
        -0.93621140718460083,
        -1
      ],
      "type": "VEC4"
    },
    {
      "bufferView": 3,
      "byteOffset": 1106704,
      "componentType": 5126,
      "count": 11499,
      "max": [
        0.75294101238250732,
        0.75294101238250732,
        0.75294101238250732,
        1
      ],
      "min": [
        0.75294101238250732,
        0.75294101238250732,
        0.75294101238250732,
        1
      ],
      "type": "VEC4"
    },
    {
      "bufferView": 1,
      "byteOffset": 230680,
      "componentType": 5126,
      "count": 11499,
      "max": [
        0.78067100048065186,
        0.99791598320007324
      ],
      "min": [
        0.0019610000308603048,
        0.049261000007390976
      ],
      "type": "VEC2"
    },
    {
      "bufferView": 0,
      "byteOffset": 667656,
      "componentType": 5125,
      "count": 67086,
      "max": [
        11498
      ],
      "min": [
        0
      ],
      "type": "SCALAR"
    },
    {
      "bufferView": 2,
      "byteOffset": 968016,
      "componentType": 5126,
      "count": 1548,
      "max": [
        10.498058319091797,
        -0.12738500535488129,
        6.919741153717041
      ],
      "min": [
        -7.9110479354858398,
        -27.878889083862305,
        -6.8382868766784668
      ],
      "type": "VEC3"
    },
    {
      "bufferView": 2,
      "byteOffset": 986592,
      "componentType": 5126,
      "count": 1548,
      "max": [
        0.99997991323471069,
        0.99451375007629395,
        0.99967151880264282
      ],
      "min": [
        -0.98948067426681519,
        -0.9999505877494812,
        -0.99889147281646729
      ],
      "type": "VEC3"
    },
    {
      "bufferView": 3,
      "byteOffset": 1290688,
      "componentType": 5126,
      "count": 1548,
      "max": [
        0.98482918739318848,
        0.99985027313232422,
        0.99848282337188721,
        1
      ],
      "min": [
        -0.98821628093719482,
        -0.65444403886795044,
        -0.90589624643325806,
        -1
      ],
      "type": "VEC4"
    },
    {
      "bufferView": 3,
      "byteOffset": 1315456,
      "componentType": 5126,
      "count": 1548,
      "max": [
        0.75294101238250732,
        0.75294101238250732,
        0.75294101238250732,
        1
      ],
      "min": [
        0.75294101238250732,
        0.75294101238250732,
        0.75294101238250732,
        1
      ],
      "type": "VEC4"
    },
    {
      "bufferView": 1,
      "byteOffset": 322672,
      "componentType": 5126,
      "count": 1548,
      "max": [
        0.98513001203536987,
        0.99599498510360718
      ],
      "min": [
        0.0079079996794462204,
        0.22115199267864227
      ],
      "type": "VEC2"
    },
    {
      "bufferView": 0,
      "byteOffset": 936000,
      "componentType": 5125,
      "count": 7902,
      "max": [
        1547
      ],
      "min": [
        0
      ],
      "type": "SCALAR"
    },
    {
      "bufferView": 2,
      "byteOffset": 1005168,
      "componentType": 5126,
      "count": 44,
      "max": [
        10.099207878112793,
        -0.040463000535964966,
        6.5864272117614746
      ],
      "min": [
        -5.0825848579406738,
        -24.48029899597168,
        -6.4685239791870117
      ],
      "type": "VEC3"
    },
    {
      "bufferView": 2,
      "byteOffset": 1005696,
      "componentType": 5126,
      "count": 44,
      "max": [
        0.39999839663505554,
        0.99451375007629395,
        0.62780505418777466
      ],
      "min": [
        -0.63777559995651245,
        -0.99520117044448853,
        -0.65447467565536499
      ],
      "type": "VEC3"
    },
    {
      "bufferView": 3,
      "byteOffset": 1340224,
      "componentType": 5126,
      "count": 44,
      "max": [
        0,
        0,
        0,
        1
      ],
      "min": [
        0,
        0,
        0,
        1
      ],
      "type": "VEC4"
    },
    {
      "bufferView": 3,
      "byteOffset": 1340928,
      "componentType": 5126,
      "count": 44,
      "max": [
        0.75294101238250732,
        0.75294101238250732,
        0.75294101238250732,
        1
      ],
      "min": [
        0.75294101238250732,
        0.75294101238250732,
        0.75294101238250732,
        1
      ],
      "type": "VEC4"
    },
    {
      "bufferView": 1,
      "byteOffset": 335056,
      "componentType": 5126,
      "count": 44,
      "max": [
        0.58471101522445679,
        0.077561996877193451
      ],
      "min": [
        0.58471101522445679,
        0.077561996877193451
      ],
      "type": "VEC2"
    },
    {
      "bufferView": 0,
      "byteOffset": 967608,
      "componentType": 5125,
      "count": 111,
      "max": [
        43
      ],
      "min": [
        0
      ],
      "type": "SCALAR"
    }
  ],
  "asset": {
    "extras": {
      "author": "alban (https://sketchfab.com/alban)",
      "license": "CC-BY-4.0 (http://creativecommons.org/licenses/by/4.0/)",
      "source": "https://sketchfab.com/models/a7accfa58fbd46f2b4e9a40093415268",
      "title": "Lego guy"
    },
    "generator": "Sketchfab-3.47.8",
    "version": "2.0"
  },
  "bufferViews": [
    {
      "buffer": 0,
      "byteLength": 968052,
      "byteOffset": 0,
      "name": "floatBufferViews",
      "target": 34963
    },
    {
      "buffer": 0,
      "byteLength": 335408,
      "byteOffset": 968052,
      "byteStride": 8,
      "name": "floatBufferViews",
      "target": 34962
    },
    {
      "buffer": 0,
      "byteLength": 1006224,
      "byteOffset": 1303460,
      "byteStride": 12,
      "name": "floatBufferViews",
      "target": 34962
    },
    {
      "buffer": 0,
      "byteLength": 1341632,
      "byteOffset": 2309684,
      "byteStride": 16,
      "name": "floatBufferViews",
      "target": 34962
    }
  ],
  "buffers": [
    {
      "byteLength": 3651316,
      "uri": "scene.bin"
    }
  ],
  "extensionsUsed": [
    "KHR_materials_unlit"
  ],
  "images": [
    {
      "uri": "textures/material_2_baseColor.jpeg"
    },
    {
      "uri": "textures/material_0_baseColor.jpeg"
    },
    {
      "uri": "textures/material_1_baseColor.jpeg"
    }
  ],
  "materials": [
    {
      "doubleSided": true,
      "emissiveFactor": [
        0,
        0,
        0
      ],
      "extensions": {
        "KHR_materials_unlit": {}
      },
      "name": "material_0",
      "pbrMetallicRoughness": {
        "baseColorFactor": [
          1,
          1,
          1,
          1
        ],
        "baseColorTexture": {
          "index": 1,
          "texCoord": 0
        },
        "metallicFactor": 0,
        "roughnessFactor": 1
      }
    },
    {
      "doubleSided": true,
      "emissiveFactor": [
        0,
        0,
        0
      ],
      "extensions": {
        "KHR_materials_unlit": {}
      },
      "name": "material_1",
      "pbrMetallicRoughness": {
        "baseColorFactor": [
          1,
          1,
          1,
          1
        ],
        "baseColorTexture": {
          "index": 2,
          "texCoord": 0
        },
        "metallicFactor": 0,
        "roughnessFactor": 1
      }
    },
    {
      "doubleSided": true,
      "emissiveFactor": [
        0,
        0,
        0
      ],
      "extensions": {
        "KHR_materials_unlit": {}
      },
      "name": "material_2",
      "pbrMetallicRoughness": {
        "baseColorFactor": [
          1,
          1,
          1,
          1
        ],
        "baseColorTexture": {
          "index": 0,
          "texCoord": 0
        },
        "metallicFactor": 0,
        "roughnessFactor": 1
      }
    },
    {
      "doubleSided": true,
      "emissiveFactor": [
        0,
        0,
        0
      ],
      "extensions": {
        "KHR_materials_unlit": {}
      },
      "name": "material_3",
      "pbrMetallicRoughness": {
        "baseColorFactor": [
          0.50196099999999999,
          0.50196099999999999,
          0.50196099999999999,
          1
        ],
        "metallicFactor": 0,
        "roughnessFactor": 1
      }
    }
  ],
  "meshes": [
    {
      "primitives": [
        {
          "attributes": {
            "COLOR_0": 3,
            "NORMAL": 1,
            "POSITION": 0,
            "TANGENT": 2,
            "TEXCOORD_0": 4
          },
          "indices": 5,
          "material": 0,
          "mode": 4
        }
      ]
    },
    {
      "primitives": [
        {
          "attributes": {
            "COLOR_0": 9,
            "NORMAL": 7,
            "POSITION": 6,
            "TANGENT": 8,
            "TEXCOORD_0": 10
          },
          "indices": 11,
          "material": 1,
          "mode": 4
        }
      ]
    },
    {
      "primitives": [
        {
          "attributes": {
            "COLOR_0": 15,
            "NORMAL": 13,
            "POSITION": 12,
            "TANGENT": 14,
            "TEXCOORD_0": 16
          },
          "indices": 17,
          "material": 2,
          "mode": 4
        }
      ]
    },
    {
      "primitives": [
        {
          "attributes": {
            "COLOR_0": 21,
            "NORMAL": 19,
            "POSITION": 18,
            "TANGENT": 20,
            "TEXCOORD_0": 22
          },
          "indices": 23,
          "material": 3,
          "mode": 4
        }
      ]
    }
  ],
  "nodes": [
    {
      "children": [
        1
      ],
      "name": "RootNode (gltf orientation matrix)",
      "rotation": [
        -0.70710678118654746,
        -0,
        -0,
        0.70710678118654757
      ]
    },
    {
      "children": [
        2
      ],
      "matrix": [
        1,
        0,
        0,
        0,
        0,
        0,
        -1,
        0,
        0,
        1,
        0,
        0,
        0,
        -13.511165618896484,
        -14.026792526245117,
        1
      ],
      "name": "RootNode (model correction matrix)"
    },
    {
      "children": [
        3,
        4,
        5,
        6
      ],
      "name": "mesh.obj.cleaner"
    },
    {
      "mesh": 0,
      "name": ""
    },
    {
      "mesh": 1,
      "name": ""
    },
    {
      "mesh": 2,
      "name": ""
    },
    {
      "mesh": 3,
      "name": ""
    }
  ],
  "samplers": [
    {
      "magFilter": 9729,
      "minFilter": 9987,
      "wrapS": 10497,
      "wrapT": 10497
    }
  ],
  "scene": 0,
  "scenes": [
    {
      "name": "OSG_Scene",
      "nodes": [
        0
      ]
    }
  ],
  "textures": [
    {
      "sampler": 0,
      "source": 0
    },
    {
      "sampler": 0,
      "source": 1
    },
    {
      "sampler": 0,
      "source": 2
    }
  ]
}

