<svg id="Capa_1" enable-background="new 0 0 512 512" height="512" viewBox="0 0 512 512" width="512" xmlns="http://www.w3.org/2000/svg"><g><path d="m304 65h-80c-8.284 0-15 6.716-15 15v64c0 8.284 6.716 15 15 15h80c8.284 0 15-6.716 15-15v-64c0-8.284-6.716-15-15-15z" fill="#ff515e"/><path d="m464 65h-80c-8.284 0-15 6.716-15 15v64c0 8.284 6.716 15 15 15h80c8.284 0 15-6.716 15-15v-64c0-8.284-6.716-15-15-15z" fill="#c6507a"/><path d="m512 143v144c0 8.28-6.72 15-15 15h-305c-8.28 0-15-6.72-15-15v-144c0-8.28 6.72-15 15-15h305c8.28 0 15 6.72 15 15z" fill="#ff6888"/><path d="m512 143v144c0 8.28-6.72 15-15 15h-153v-174h153c8.28 0 15 6.72 15 15z" fill="#ff515e"/><path d="m497 273h-153c-8.284 0-15 6.716-15 15v144c0 8.284 6.716 15 15 15h153c8.284 0 15-6.716 15-15v-144c0-8.284-6.716-15-15-15z" fill="#f4de48"/><path d="m128 209h-80c-8.284 0-15 6.716-15 15v64c0 8.284 6.716 15 15 15h80c8.284 0 15-6.716 15-15v-64c0-8.284-6.716-15-15-15z" fill="#554fb2"/><path d="m359 288v144c0 8.28-6.72 15-15 15h-329c-8.28 0-15-6.72-15-15v-144c0-8.28 6.72-15 15-15h329c8.28 0 15 6.72 15 15z" fill="#736dd9"/><path d="m359 288v144c0 8.28-6.72 15-15 15h-168v-174h168c8.28 0 15 6.72 15 15z" fill="#554fb2"/></g></svg>