{
  "accessors": [
    {
      "bufferView": 2,
      "componentType": 5126,
      "count": 530,
      "max": [
        7,
        3.9600000381469727,
        20.799999237060547
      ],
      "min": [
        -7,
        -3.9600000381469727,
        7.6009998321533203
      ],
      "type": "VEC3"
    },
    {
      "bufferView": 2,
      "byteOffset": 6360,
      "componentType": 5126,
      "count": 530,
      "max": [
        1,
        1,
        1
      ],
      "min": [
        -1,
        -1,
        -1
      ],
      "type": "VEC3"
    },
    {
      "bufferView": 0,
      "componentType": 5125,
      "count": 1596,
      "max": [
        529
      ],
      "min": [
        0
      ],
      "type": "SCALAR"
    },
    {
      "bufferView": 2,
      "byteOffset": 12720,
      "componentType": 5126,
      "count": 431,
      "max": [
        7.6999998092651367,
        3.5999999046325684,
        14.800000190734863
      ],
      "min": [
        0.5,
        -4.3600001335144043,
        0.019999809563159943
      ],
      "type": "VEC3"
    },
    {
      "bufferView": 2,
      "byteOffset": 17892,
      "componentType": 5126,
      "count": 431,
      "max": [
        1,
        1,
        1
      ],
      "min": [
        -1,
        -1,
        -1
      ],
      "type": "VEC3"
    },
    {
      "bufferView": 3,
      "componentType": 5126,
      "count": 431,
      "max": [
        1,
        1,
        0.34081274271011353,
        1
      ],
      "min": [
        -1,
        -1,
        -0.25325107574462891,
        -1
      ],
      "type": "VEC4"
    },
    {
      "bufferView": 1,
      "componentType": 5126,
      "count": 431,
      "max": [
        0.98100000619888306,
        0.66699999570846558
      ],
      "min": [
        0.048000000417232513,
        0.34799998998641968
      ],
      "type": "VEC2"
    },
    {
      "bufferView": 0,
      "byteOffset": 6384,
      "componentType": 5125,
      "count": 1218,
      "max": [
        430
      ],
      "min": [
        0
      ],
      "type": "SCALAR"
    },
    {
      "bufferView": 2,
      "byteOffset": 23064,
      "componentType": 5126,
      "count": 431,
      "max": [
        -0.5,
        3.5999999046325684,
        14.800000190734863
      ],
      "min": [
        -7.6999998092651367,
        -4.3600001335144043,
        0.019999809563159943
      ],
      "type": "VEC3"
    },
    {
      "bufferView": 2,
      "byteOffset": 28236,
      "componentType": 5126,
      "count": 431,
      "max": [
        1,
        1,
        1
      ],
      "min": [
        -1,
        -1,
        -1
      ],
      "type": "VEC3"
    },
    {
      "bufferView": 3,
      "byteOffset": 6896,
      "componentType": 5126,
      "count": 431,
      "max": [
        1,
        1,
        0.21310323476791382,
        1
      ],
      "min": [
        -1,
        -1,
        -0.34081295132637024,
        -1
      ],
      "type": "VEC4"
    },
    {
      "bufferView": 1,
      "byteOffset": 3448,
      "componentType": 5126,
      "count": 431,
      "max": [
        0.98100000619888306,
        0.66699999570846558
      ],
      "min": [
        0.048000000417232513,
        0.34799998998641968
      ],
      "type": "VEC2"
    },
    {
      "bufferView": 0,
      "byteOffset": 11256,
      "componentType": 5125,
      "count": 1218,
      "max": [
        430
      ],
      "min": [
        0
      ],
      "type": "SCALAR"
    },
    {
      "bufferView": 2,
      "byteOffset": 33408,
      "componentType": 5126,
      "count": 770,
      "max": [
        5.0999999046325684,
        5.0999999046325684,
        40.400001525878906
      ],
      "min": [
        -5.0999999046325684,
        -5.0999999046325684,
        28.819999694824219
      ],
      "type": "VEC3"
    },
    {
      "bufferView": 2,
      "byteOffset": 42648,
      "componentType": 5126,
      "count": 770,
      "max": [
        0.99907618761062622,
        0.99907618761062622,
        1
      ],
      "min": [
        -0.99907618761062622,
        -0.99907618761062622,
        -1
      ],
      "type": "VEC3"
    },
    {
      "bufferView": 3,
      "byteOffset": 13792,
      "componentType": 5126,
      "count": 770,
      "max": [
        0.99999338388442993,
        0.99918282032012939,
        0.10975838452577591,
        1
      ],
      "min": [
        -0.99999344348907471,
        -0.99918282032012939,
        -0.12528528273105621,
        -1
      ],
      "type": "VEC4"
    },
    {
      "bufferView": 1,
      "byteOffset": 6896,
      "componentType": 5126,
      "count": 770,
      "max": [
        0.98799997568130493,
        0.98199999332427979
      ],
      "min": [
        0.21299999952316284,
        0.014000000432133675
      ],
      "type": "VEC2"
    },
    {
      "bufferView": 0,
      "byteOffset": 16128,
      "componentType": 5125,
      "count": 3024,
      "max": [
        769
      ],
      "min": [
        0
      ],
      "type": "SCALAR"
    },
    {
      "bufferView": 2,
      "byteOffset": 51888,
      "componentType": 5126,
      "count": 1276,
      "max": [
        7.6999998092651367,
        3.9600000381469727,
        34.599998474121094
      ],
      "min": [
        -7.6999998092651367,
        -3.9600000381469727,
        16.020000457763672
      ],
      "type": "VEC3"
    },
    {
      "bufferView": 2,
      "byteOffset": 67200,
      "componentType": 5126,
      "count": 1276,
      "max": [
        1,
        1,
        1
      ],
      "min": [
        -1,
        -1,
        -1
      ],
      "type": "VEC3"
    },
    {
      "bufferView": 3,
      "byteOffset": 26112,
      "componentType": 5126,
      "count": 1276,
      "max": [
        1,
        1,
        0.54809713363647461,
        1
      ],
      "min": [
        -1,
        -1,
        -0.54809713363647461,
        -1
      ],
      "type": "VEC4"
    },
    {
      "bufferView": 1,
      "byteOffset": 13056,
      "componentType": 5126,
      "count": 1276,
      "max": [
        0.98100000619888306,
        0.92900002002716064
      ],
      "min": [
        0.017999999225139618,
        0.032000001519918442
      ],
      "type": "VEC2"
    },
    {
      "bufferView": 0,
      "byteOffset": 28224,
      "componentType": 5125,
      "count": 4572,
      "max": [
        1275
      ],
      "min": [
        0
      ],
      "type": "SCALAR"
    },
    {
      "bufferView": 2,
      "byteOffset": 82512,
      "componentType": 5126,
      "count": 671,
      "max": [
        -2.8517343997955322,
        2.647404670715332,
        27.669233322143555
      ],
      "min": [
        -11.566813468933105,
        -4.5254950523376465,
        16.262367248535156
      ],
      "type": "VEC3"
    },
    {
      "bufferView": 2,
      "byteOffset": 90564,
      "componentType": 5126,
      "count": 671,
      "max": [
        0.99060684442520142,
        0.9997326135635376,
        0.9997979998588562
      ],
      "min": [
        -0.99057543277740479,
        -0.99958145618438721,
        -0.9997221827507019
      ],
      "type": "VEC3"
    },
    {
      "bufferView": 3,
      "byteOffset": 46528,
      "componentType": 5126,
      "count": 671,
      "max": [
        0.99645900726318359,
        0.99991869926452637,
        0.23734375834465027,
        1
      ],
      "min": [
        -0.99747371673583984,
        -1,
        -0.54894334077835083,
        -1
      ],
      "type": "VEC4"
    },
    {
      "bufferView": 1,
      "byteOffset": 23264,
      "componentType": 5126,
      "count": 671,
      "max": [
        0.98100000619888306,
        0.85699999332427979
      ],
      "min": [
        0.026000000536441803,
        0.125
      ],
      "type": "VEC2"
    },
    {
      "bufferView": 0,
      "byteOffset": 46512,
      "componentType": 5125,
      "count": 2712,
      "max": [
        670
      ],
      "min": [
        0
      ],
      "type": "SCALAR"
    },
    {
      "bufferView": 2,
      "byteOffset": 98616,
      "componentType": 5126,
      "count": 671,
      "max": [
        11.566813468933105,
        2.647404670715332,
        27.669233322143555
      ],
      "min": [
        2.8517343997955322,
        -4.5254950523376465,
        16.262367248535156
      ],
      "type": "VEC3"
    },
    {
      "bufferView": 2,
      "byteOffset": 106668,
      "componentType": 5126,
      "count": 671,
      "max": [
        0.99057555198669434,
        0.99973267316818237,
        0.9997979998588562
      ],
      "min": [
        -0.99060684442520142,
        -0.99958145618438721,
        -0.9997221827507019
      ],
      "type": "VEC3"
    },
    {
      "bufferView": 3,
      "byteOffset": 57264,
      "componentType": 5126,
      "count": 671,
      "max": [
        0.99642807245254517,
        1,
        0.54894322156906128,
        1
      ],
      "min": [
        -0.99747371673583984,
        -0.99991863965988159,
        -0.23734369874000549,
        -1
      ],
      "type": "VEC4"
    },
    {
      "bufferView": 1,
      "byteOffset": 28632,
      "componentType": 5126,
      "count": 671,
      "max": [
        0.98100000619888306,
        0.85699999332427979
      ],
      "min": [
        0.026000000536441803,
        0.125
      ],
      "type": "VEC2"
    },
    {
      "bufferView": 0,
      "byteOffset": 57360,
      "componentType": 5125,
      "count": 2712,
      "max": [
        670
      ],
      "min": [
        0
      ],
      "type": "SCALAR"
    },
    {
      "bufferView": 2,
      "byteOffset": 114720,
      "componentType": 5126,
      "count": 1202,
      "max": [
        12.721467971801758,
        1.5625866651535034,
        22.31922721862793
      ],
      "min": [
        -12.721467971801758,
        -8.5544414520263672,
        12.742228507995605
      ],
      "type": "VEC3"
    },
    {
      "bufferView": 2,
      "byteOffset": 129144,
      "componentType": 5126,
      "count": 1202,
      "max": [
        0.99479037523269653,
        0.99813282489776611,
        0.99337655305862427
      ],
      "min": [
        -0.99479037523269653,
        -0.9973260760307312,
        -0.99340522289276123
      ],
      "type": "VEC3"
    },
    {
      "bufferView": 0,
      "byteOffset": 68208,
      "componentType": 5125,
      "count": 4932,
      "max": [
        1201
      ],
      "min": [
        0
      ],
      "type": "SCALAR"
    }
  ],
  "asset": {
    "extras": {
      "author": "Lego Mania (https://sketchfab.com/dankmememe)",
      "license": "CC-BY-4.0 (http://creativecommons.org/licenses/by/4.0/)",
      "source": "https://sketchfab.com/models/d84dc4fc47614a4687a774152b343ddd",
      "title": "Spider-Man Homecoming LEGO Model"
    },
    "generator": "Sketchfab-3.37.3",
    "version": "2.0"
  },
  "bufferViews": [
    {
      "buffer": 0,
      "byteLength": 87936,
      "byteOffset": 0,
      "name": "floatBufferViews",
      "target": 34963
    },
    {
      "buffer": 0,
      "byteLength": 34000,
      "byteOffset": 87936,
      "byteStride": 8,
      "name": "floatBufferViews",
      "target": 34962
    },
    {
      "buffer": 0,
      "byteLength": 143568,
      "byteOffset": 121936,
      "byteStride": 12,
      "name": "floatBufferViews",
      "target": 34962
    },
    {
      "buffer": 0,
      "byteLength": 68000,
      "byteOffset": 265504,
      "byteStride": 16,
      "name": "floatBufferViews",
      "target": 34962
    }
  ],
  "buffers": [
    {
      "byteLength": 333504,
      "uri": "scene.bin"
    }
  ],
  "images": [
    {
      "uri": "textures/Decoration_3626d577_baseColor.png"
    },
    {
      "uri": "textures/Decoration_3819d469_baseColor.png"
    },
    {
      "uri": "textures/Decoration_3818d469_baseColor.png"
    },
    {
      "uri": "textures/Decoration_20932d136_baseColor.png"
    },
    {
      "uri": "textures/Decoration_3814d469_baseColor.png"
    },
    {
      "uri": "textures/Decoration_20926d136_baseColor.png"
    }
  ],
  "materials": [
    {
      "doubleSided": true,
      "emissiveFactor": [
        0,
        0,
        0
      ],
      "name": "Color_140",
      "pbrMetallicRoughness": {
        "baseColorFactor": [
          0,
          0.0197396055,
          0.051766289799999997,
          1
        ],
        "metallicFactor": 1,
        "roughnessFactor": 0
      }
    },
    {
      "doubleSided": true,
      "emissiveFactor": [
        0,
        0,
        0
      ],
      "name": "Color_21",
      "pbrMetallicRoughness": {
        "baseColorFactor": [
          0.83921599999999996,
          0,
          0.117647,
          1
        ],
        "metallicFactor": 1,
        "roughnessFactor": 0
      }
    },
    {
      "doubleSided": true,
      "emissiveFactor": [
        0,
        0,
        0
      ],
      "name": "Decoration_20926d136",
      "pbrMetallicRoughness": {
        "baseColorFactor": [
          1,
          1,
          1,
          1
        ],
        "baseColorTexture": {
          "index": 5,
          "texCoord": 0
        },
        "metallicFactor": 1,
        "roughnessFactor": 0
      }
    },
    {
      "doubleSided": true,
      "emissiveFactor": [
        0,
        0,
        0
      ],
      "name": "Decoration_20932d136",
      "pbrMetallicRoughness": {
        "baseColorFactor": [
          1,
          1,
          1,
          1
        ],
        "baseColorTexture": {
          "index": 3,
          "texCoord": 0
        },
        "metallicFactor": 1,
        "roughnessFactor": 0
      }
    },
    {
      "doubleSided": true,
      "emissiveFactor": [
        0,
        0,
        0
      ],
      "name": "Decoration_3626d577",
      "pbrMetallicRoughness": {
        "baseColorFactor": [
          1,
          1,
          1,
          1
        ],
        "baseColorTexture": {
          "index": 0,
          "texCoord": 0
        },
        "metallicFactor": 1,
        "roughnessFactor": 0
      }
    },
    {
      "doubleSided": true,
      "emissiveFactor": [
        0,
        0,
        0
      ],
      "name": "Decoration_3814d469",
      "pbrMetallicRoughness": {
        "baseColorFactor": [
          1,
          1,
          1,
          1
        ],
        "baseColorTexture": {
          "index": 4,
          "texCoord": 0
        },
        "metallicFactor": 1,
        "roughnessFactor": 0
      }
    },
    {
      "doubleSided": true,
      "emissiveFactor": [
        0,
        0,
        0
      ],
      "name": "Decoration_3818d469",
      "pbrMetallicRoughness": {
        "baseColorFactor": [
          1,
          1,
          1,
          1
        ],
        "baseColorTexture": {
          "index": 2,
          "texCoord": 0
        },
        "metallicFactor": 1,
        "roughnessFactor": 0
      }
    },
    {
      "doubleSided": true,
      "emissiveFactor": [
        0,
        0,
        0
      ],
      "name": "Decoration_3819d469",
      "pbrMetallicRoughness": {
        "baseColorFactor": [
          1,
          1,
          1,
          1
        ],
        "baseColorTexture": {
          "index": 1,
          "texCoord": 0
        },
        "metallicFactor": 1,
        "roughnessFactor": 0
      }
    }
  ],
  "meshes": [
    {
      "primitives": [
        {
          "attributes": {
            "NORMAL": 1,
            "POSITION": 0
          },
          "indices": 2,
          "material": 0,
          "mode": 4
        }
      ]
    },
    {
      "primitives": [
        {
          "attributes": {
            "NORMAL": 4,
            "POSITION": 3,
            "TANGENT": 5,
            "TEXCOORD_0": 6
          },
          "indices": 7,
          "material": 2,
          "mode": 4
        }
      ]
    },
    {
      "primitives": [
        {
          "attributes": {
            "NORMAL": 9,
            "POSITION": 8,
            "TANGENT": 10,
            "TEXCOORD_0": 11
          },
          "indices": 12,
          "material": 3,
          "mode": 4
        }
      ]
    },
    {
      "primitives": [
        {
          "attributes": {
            "NORMAL": 14,
            "POSITION": 13,
            "TANGENT": 15,
            "TEXCOORD_0": 16
          },
          "indices": 17,
          "material": 4,
          "mode": 4
        }
      ]
    },
    {
      "primitives": [
        {
          "attributes": {
            "NORMAL": 19,
            "POSITION": 18,
            "TANGENT": 20,
            "TEXCOORD_0": 21
          },
          "indices": 22,
          "material": 5,
          "mode": 4
        }
      ]
    },
    {
      "primitives": [
        {
          "attributes": {
            "NORMAL": 24,
            "POSITION": 23,
            "TANGENT": 25,
            "TEXCOORD_0": 26
          },
          "indices": 27,
          "material": 6,
          "mode": 4
        }
      ]
    },
    {
      "primitives": [
        {
          "attributes": {
            "NORMAL": 29,
            "POSITION": 28,
            "TANGENT": 30,
            "TEXCOORD_0": 31
          },
          "indices": 32,
          "material": 7,
          "mode": 4
        }
      ]
    },
    {
      "primitives": [
        {
          "attributes": {
            "NORMAL": 34,
            "POSITION": 33
          },
          "indices": 35,
          "material": 1,
          "mode": 4
        }
      ]
    }
  ],
  "nodes": [
    {
      "children": [
        1
      ],
      "name": "RootNode (gltf orientation matrix)",
      "rotation": [
        -0.70710678118654746,
        -0,
        -0,
        0.70710678118654757
      ]
    },
    {
      "children": [
        2
      ],
      "name": "RootNode (model correction matrix)"
    },
    {
      "children": [
        3,
        4,
        5,
        6,
        7,
        8,
        9,
        10
      ],
      "name": "Untitled Model.obj.cleaner.materialmerger.gles"
    },
    {
      "mesh": 0,
      "name": ""
    },
    {
      "mesh": 1,
      "name": ""
    },
    {
      "mesh": 2,
      "name": ""
    },
    {
      "mesh": 3,
      "name": ""
    },
    {
      "mesh": 4,
      "name": ""
    },
    {
      "mesh": 5,
      "name": ""
    },
    {
      "mesh": 6,
      "name": ""
    },
    {
      "mesh": 7,
      "name": ""
    }
  ],
  "samplers": [
    {
      "magFilter": 9729,
      "minFilter": 9987,
      "wrapS": 10497,
      "wrapT": 10497
    }
  ],
  "scene": 0,
  "scenes": [
    {
      "name": "OSG_Scene",
      "nodes": [
        0
      ]
    }
  ],
  "textures": [
    {
      "sampler": 0,
      "source": 0
    },
    {
      "sampler": 0,
      "source": 1
    },
    {
      "sampler": 0,
      "source": 2
    },
    {
      "sampler": 0,
      "source": 3
    },
    {
      "sampler": 0,
      "source": 4
    },
    {
      "sampler": 0,
      "source": 5
    }
  ]
}

